<svg xmlns="http://www.w3.org/2000/svg" height="32" width="32" viewBox="0 0 40 40" fill="#a9bcd4"><path d="M25.724 30h-9.821a.577.577 0 0 1-.154-.02h-2.238c-1.928 0-3.511-1.424-3.511-3.205v-12.57C10 12.422 11.583 11 13.511 11H27.49C29.417 11 31 12.423 31 14.205v12.57c0 1.781-1.583 3.204-3.511 3.204h-1.612a.577.577 0 0 1-.153.021zm1.765-1.137c1.323 0 2.376-.947 2.376-2.088v-12.57c0-1.142-1.053-2.089-2.376-2.089H13.51c-1.323 0-2.376.947-2.376 2.088v12.571c0 1.141 1.053 2.088 2.376 2.088h1.824v-1.477c0-2.462 2.615-4.979 5.478-4.979 2.865 0 5.478 2.516 5.478 4.979v1.477h1.198zm-2.333-1.477c0-1.84-2.1-3.862-4.343-3.862-2.242 0-4.343 2.022-4.343 3.862v1.477h8.686v-1.477zM23.85 18.28c0 1.801-1.473 3.263-3.293 3.263-1.819 0-3.291-1.462-3.291-3.263 0-1.8 1.472-3.26 3.291-3.26 1.82 0 3.293 1.46 3.293 3.26zm-1.135 0a2.15 2.15 0 0 0-2.158-2.144A2.15 2.15 0 0 0 18.4 18.28a2.15 2.15 0 0 0 2.156 2.146c1.19 0 2.158-.96 2.158-2.146z"></path></svg>