<svg xmlns="http://www.w3.org/2000/svg" height="32" width="32" viewBox="0 0 40 40" fill="#a9bcd4">
    <path d="M29.736 10h-19.47C9.015 10 8 10.973 8 12.168v15.665C8 29.027 9.016 30 10.265 30h19.471c1.25 0 2.264-.973 2.264-2.167V12.168C32 10.973 30.985 10 29.736 10zm1.121 17.833c0 .59-.503 1.072-1.121 1.072h-19.47c-.62 0-1.123-.481-1.123-1.072V12.168c0-.592.504-1.073 1.122-1.073h19.471c.618 0 1.121.481 1.121 1.073v15.665zm-1.623-13.468a.56.56 0 0 1 .572.547v5.53a.56.56 0 0 1-.572.547H10.94a.56.56 0 0 1-.571-.547v-5.53a.56.56 0 0 1 .571-.547h18.295zm-17.723 5.53h17.152V15.46H11.51v4.434zm7.527 6.005h-8.166a.56.56 0 0 0-.571.547c0 .303.254.547.571.547h8.166a.56.56 0 0 0 .571-.547.56.56 0 0 0-.571-.547zm-3.713-13.175a.554.554 0 0 1-.567-.542c0-.3.253-.542.567-.542.313 0 .566.242.566.542a.554.554 0 0 1-.566.542zm13.91 10.23a.56.56 0 0 1 .57.547.56.56 0 0 1-.57.547h-8.166a.56.56 0 0 1-.572-.547.56.56 0 0 1 .572-.548h8.165zm0 2.945a.56.56 0 0 1 .57.547.56.56 0 0 1-.57.547h-8.166a.56.56 0 0 1-.572-.547.56.56 0 0 1 .572-.547h8.165zm-10.197-2.946h-8.166a.56.56 0 0 0-.571.548.56.56 0 0 0 .571.547h8.166a.56.56 0 0 0 .571-.547.56.56 0 0 0-.571-.548zm-6.264-10.229a.554.554 0 0 0 .567-.542c0-.3-.254-.542-.567-.542a.555.555 0 0 0-.567.542c0 .3.255.542.567.542zm-1.7-.542c0-.3-.255-.542-.567-.542a.555.555 0 0 0-.568.542c0 .3.255.542.568.542a.555.555 0 0 0 .567-.542z" />
</svg>